<svg width="22" height="18" viewBox="0 0 22 18" fill="none" xmlns="http://www.w3.org/2000/svg">
<path d="M14.824 3.27999C14.8239 3.8817 14.5859 4.45898 14.162 4.88599C13.186 5.86999 12.239 6.89599 11.226 7.84399C11.1129 7.94702 10.9646 8.0027 10.8116 7.99954C10.6586 7.99637 10.5127 7.93461 10.404 7.82699L7.48599 4.88699C7.06183 4.45971 6.82379 3.88205 6.82379 3.27999C6.82379 2.67792 7.06183 2.10027 7.48599 1.67299C7.69764 1.45977 7.9494 1.29054 8.22675 1.17506C8.5041 1.05958 8.80156 1.00013 9.10199 1.00013C9.40242 1.00013 9.69988 1.05958 9.97723 1.17506C10.2546 1.29054 10.5063 1.45977 10.718 1.67299L10.824 1.77999L10.93 1.67299C11.2477 1.35185 11.6538 1.13252 12.0965 1.04291C12.5393 0.953302 12.9987 0.997472 13.4162 1.1698C13.8338 1.34212 14.1907 1.63481 14.4414 2.01059C14.692 2.38637 14.8252 2.82826 14.824 3.27999V3.27999Z" stroke="#008F76" stroke-width="1.5" stroke-linejoin="round"/>
<path d="M16.824 17L20.648 13.176C20.7605 13.0636 20.8238 12.9111 20.824 12.752V7.5C20.824 7.10218 20.6659 6.72064 20.3846 6.43934C20.1033 6.15804 19.7218 6 19.324 6V6C18.9261 6 18.5446 6.15804 18.2633 6.43934C17.982 6.72064 17.824 7.10218 17.824 7.5V12" stroke="#008F76" stroke-width="1.5" stroke-linecap="round" stroke-linejoin="round"/>
<path d="M16.824 13L17.682 12.142C17.7271 12.097 17.7628 12.0435 17.7872 11.9847C17.8115 11.9258 17.824 11.8627 17.824 11.799C17.8238 11.7091 17.7987 11.621 17.7514 11.5445C17.704 11.468 17.6364 11.4062 17.556 11.366L17.113 11.145C16.7377 10.9573 16.3128 10.8925 15.8986 10.9596C15.4844 11.0267 15.1018 11.2224 14.805 11.519L13.91 12.414C13.5349 12.789 13.3241 13.2976 13.324 13.828V17M4.82397 17L0.999975 13.176C0.887421 13.0636 0.824115 12.9111 0.823975 12.752V7.5C0.823975 7.10218 0.98201 6.72064 1.26331 6.43934C1.54462 6.15804 1.92615 6 2.32397 6V6C2.7218 6 3.10333 6.15804 3.38463 6.43934C3.66594 6.72064 3.82397 7.10218 3.82397 7.5V12" stroke="#008F76" stroke-width="1.5" stroke-linecap="round" stroke-linejoin="round"/>
<path d="M4.82397 13L3.96597 12.142C3.92094 12.0969 3.88522 12.0435 3.86086 11.9846C3.83649 11.9258 3.82396 11.8627 3.82397 11.799V11.799C3.82397 11.616 3.92797 11.449 4.09197 11.366L4.53497 11.145C4.91029 10.9573 5.33511 10.8925 5.74932 10.9596C6.16353 11.0267 6.54613 11.2224 6.84297 11.519L7.73797 12.414C8.11307 12.789 8.32386 13.2976 8.32397 13.828V17" stroke="#008F76" stroke-width="1.5" stroke-linecap="round" stroke-linejoin="round"/>
</svg>
