<svg width="7" height="12" viewBox="0 0 7 12" fill="none" xmlns="http://www.w3.org/2000/svg">
<path d="M6.51395 0.709992C6.60666 0.802505 6.6802 0.912394 6.73038 1.03337C6.78057 1.15434 6.8064 1.28402 6.8064 1.41499C6.8064 1.54596 6.78057 1.67564 6.73038 1.79662C6.6802 1.91759 6.60666 2.02748 6.51395 2.11999L2.63395 5.99999L6.51395 9.87999C6.70093 10.067 6.80597 10.3206 6.80597 10.585C6.80597 10.8494 6.70093 11.103 6.51395 11.29C6.32697 11.477 6.07338 11.582 5.80895 11.582C5.54453 11.582 5.29093 11.477 5.10395 11.29L0.513952 6.69999C0.421249 6.60748 0.347701 6.49759 0.29752 6.37662C0.247338 6.25564 0.221509 6.12596 0.221509 5.99499C0.221509 5.86402 0.247338 5.73434 0.29752 5.61337C0.347701 5.49239 0.421249 5.3825 0.513952 5.28999L5.10395 0.699991C5.48395 0.319991 6.12395 0.319992 6.51395 0.709992Z" fill="#949494"/>
</svg>
